<svg id="facebook-logo" xmlns="http://www.w3.org/2000/svg" width="12.026" height="22.244" viewBox="0 0 12.026 22.244">
  <path id="Tracciato_92" data-name="Tracciato 92" d="M33.651,0,30.766,0c-3.241,0-5.335,2.149-5.335,5.474V8h-2.9a.454.454,0,0,0-.454.454v3.657a.454.454,0,0,0,.454.454h2.9v9.228a.453.453,0,0,0,.454.454h3.784a.454.454,0,0,0,.454-.454V12.563h3.391a.453.453,0,0,0,.454-.454V8.452A.454.454,0,0,0,33.515,8H30.122V5.859c0-1.028.245-1.55,1.585-1.55H33.65a.454.454,0,0,0,.453-.454V.458A.454.454,0,0,0,33.651,0Z" transform="translate(-22.077)" fill="#fff"/>
</svg>
