<?xml version="1.0" encoding="utf-8"?>
<!-- Generator: Adobe Illustrator 26.0.2, SVG Export Plug-In . SVG Version: 6.00 Build 0)  -->
<svg version="1.1" id="Livello_1" xmlns="http://www.w3.org/2000/svg" xmlns:xlink="http://www.w3.org/1999/xlink" x="0px" y="0px"
	 viewBox="0 0 383.7 350.9" style="enable-background:new 0 0 383.7 350.9;" xml:space="preserve">
<style type="text/css">
	.st0{fill:#FFFFFF;}
</style>
<g>
	<path class="st0" d="M0,159.2c0-6.2,0-12.5,0-18.7c1.1-6.1,1.9-12.3,3.4-18.3c8.2-33,27.4-58.6,53.9-79
		c29.5-22.7,63.2-35.4,99.9-40.6c37.8-5.4,74.9-2.4,111,10c36.6,12.6,68.3,32.5,90.7,64.7c30,43.2,33,88.6,7.1,134.7
		c-16.3,29-41,49.2-70.3,64c-42.7,21.6-88,27.6-135.2,22.3c-1.8-0.2-4.2,0.5-5.7,1.6c-18.1,12.3-36.1,24.9-54.3,37.2
		c-7.2,4.8-14.9,9.1-22.5,13.2c-1.6,0.9-4.7,0.8-6.1-0.2c-1.1-0.8-1.3-3.9-0.8-5.7c3.8-14.3,7.8-28.6,11.8-42.9
		c2.3-8.1,4.7-16.2,7.1-24.3c-14.4-7.2-27.7-15.6-39.6-25.9c-22-19-38.4-41.8-46-70.2C2.3,173.9,1.4,166.5,0,159.2z M283.4,139.4
		c-0.3-0.2-0.6-0.5-0.9-0.7c0-7.2,0.1-14.4,0-21.7c-0.1-6.9-4.6-11.7-10.9-11.8c-6.5-0.1-11.1,4.8-11.1,11.9c0,24.4,0,48.9,0,73.3
		c0,6.8,4.5,11.8,10.8,11.9c6.4,0.1,11.1-4.8,11.2-11.9c0.1-6.4,0.2-12.7-0.1-19.1c-0.2-3.5,1.2-5.8,4.2-7.6
		c1.6,1.8,3.2,3.4,4.5,5.2c4.4,6.1,8.4,12.4,12.9,18.3c3.3,4.3,6.7,8.8,10.8,12.3c6.3,5.4,14.7,2.1,16.9-5.9c1.1-4-0.3-7.1-2.6-10.1
		c-8.1-10.7-16.2-21.5-24.5-32.1c-1.8-2.3-1.7-3.8,0.3-5.7c3.8-3.6,7.6-7.2,11.4-10.8c3.8-3.7,7.9-7.2,11.3-11.3
		c4-4.8,3.6-9.3-0.4-13.4c-4.2-4.3-8.5-4.8-13.7-1.1c-2.6,1.9-5,4.1-7.2,6.5c-4.3,4.5-8.3,9.3-12.6,13.8
		C290.5,132.9,286.9,136.1,283.4,139.4z M108.1,192.6c0.3,5.2,2.4,8.1,6.9,9.2c6.7,1.6,11.7,0,13.9-4.8c1.6-3.5,2.8-7.2,4-10.9
		c0.7-2.2,1.9-3.1,4.3-3c9.2,0.2,18.5,0.1,27.7,0c2.4,0,3.7,0.7,4.4,2.9c1.1,3.6,2.3,7.1,3.8,10.5c2.2,5.2,8,7.1,14.8,5.1
		c4.4-1.3,6.5-4.7,5.5-10.4c-0.8-4.6-2-9.3-3.7-13.6c-7.6-19.9-15.4-39.7-23-59.5c-3-7.9-8.4-12.7-15.2-12.8
		c-6.6-0.1-12.5,4.4-15.4,12.1c-8.5,22.1-16.9,44.2-25.3,66.3C109.5,186.6,108.9,189.6,108.1,192.6z M74.7,126.8c0,1.9,0,3.2,0,4.6
		c0,19.7-0.1,39.4,0.1,59.1c0,3,1.3,6.5,3.2,8.7c3,3.7,7.5,4.2,12,2.4c4.5-1.8,6.7-5.3,6.7-10.2c0-19.9,0-39.9,0-59.8
		c0-1.5,0-2.9,0-4.7c1.8,0,3.2,0,4.5,0c4.4,0,8.7,0.2,13.1-0.1c6.2-0.4,10.7-5.3,10.5-11c-0.2-5.7-4.7-10.4-10.7-10.4
		c-19.1-0.1-38.1-0.1-57.2,0c-4.7,0-8.4,3.1-9.8,7.3c-2.3,7.2,2.8,13.9,10.9,14.1C63.4,126.9,68.7,126.8,74.7,126.8z M222.1,180.9
		c0-2,0-3.5,0-5c0-19.6,0.1-39.2,0-58.7c0-7.1-5-12-11.7-11.8c-6.6,0.2-10.9,5.4-10.9,12.6c0.1,17-0.1,33.9-0.1,50.9
		c0,7.5-0.2,15,0.4,22.4c0.7,7.3,3.9,9.8,11.1,9.8c11.1,0.1,22.2,0,33.3,0c1.1,0,2.2-0.1,3.3-0.3c5.4-1.1,8.9-5.5,8.4-10.6
		c-0.4-4.9-4.5-8.9-9.8-9C238.4,180.7,230.6,180.9,222.1,180.9z"/>
	<path class="st0" d="M151.5,133.9c3.5,9.8,6.9,19.5,10.5,29.6c-7.4,0-14.4,0-21.8,0c3.5-9.9,7-19.7,10.4-29.5
		C150.9,133.9,151.2,133.9,151.5,133.9z"/>
</g>
</svg>
