<?xml version="1.0" encoding="utf-8"?>
<!-- Generator: Adobe Illustrator 25.4.1, SVG Export Plug-In . SVG Version: 6.00 Build 0)  -->
<svg version="1.1" id="Livello_1" xmlns="http://www.w3.org/2000/svg" xmlns:xlink="http://www.w3.org/1999/xlink" x="0px" y="0px"
	 viewBox="0 0 408.8 409.6" style="enable-background:new 0 0 408.8 409.6;" xml:space="preserve">
<style type="text/css">
	.st0{fill:#FFFFFF;}
</style>
<g>
	<path class="st0" d="M389.6,0c2.1,0,4.3,0,6.4,0c6.4,2.1,10.7,6.4,12.8,12.8c0,2.1,0,4.3,0,6.4c-2.8,4-5.1,8.4-8.5,11.8
		c-56.5,56.8-113.1,113.5-169.8,170.2c-1.1,1.1-2.6,1.8-4,2.7c0,0.6,0,1.2,0,1.9c1.3,0.9,2.8,1.6,4,2.7
		c56.6,56.7,113.3,113.4,169.8,170.2c3.4,3.4,5.7,7.8,8.5,11.8c0,2.1,0,4.3,0,6.4c-2.1,6.4-6.3,10.7-12.8,12.8c-2.1,0-4.3,0-6.4,0
		c-4-2.8-8.4-5.1-11.8-8.5C321.1,344.5,264.5,287.8,208,231c-1.1-1.1-1.8-2.6-3.3-4.9c-1.9,2.5-2.8,3.8-3.9,4.9
		C144.2,287.8,87.6,344.5,30.9,401.1c-3.4,3.4-7.8,5.7-11.8,8.5c-2.1,0-4.3,0-6.4,0c-5.1-2-9.6-4.7-11.6-10.1
		c-2.8-7.6-0.2-13.6,5.3-19.1C63.8,323,121,265.6,178.3,208.2c1.1-1.1,2.1-2.2,3.8-4c-1.7-1.3-3.1-2.3-4.3-3.5
		C120.9,143.9,64.1,86.9,7.3,30c-1.5-1.5-3-3-4.3-4.7c-5.9-8.1-3-19.4,6.1-23.7C10.3,1,11.5,0.5,12.7,0c2.1,0,4.3,0,6.4,0
		c4,2.8,8.4,5.1,11.8,8.5c56.7,56.6,113.3,113.4,169.9,170.1c1.1,1.1,1.8,2.6,2.7,4c0.6,0,1.2,0,1.9,0c0.9-1.3,1.6-2.9,2.7-4
		C264.5,121.8,321.1,65.1,377.8,8.5C381.2,5.1,385.7,2.8,389.6,0z"/>
</g>
</svg>
