<svg id="instagram-logo" xmlns="http://www.w3.org/2000/svg" width="21.872" height="21.872" viewBox="0 0 21.872 21.872">
  <path id="Tracciato_93" data-name="Tracciato 93" d="M15.836,0h-9.8A6.043,6.043,0,0,0,0,6.036v9.8a6.043,6.043,0,0,0,6.036,6.036h9.8a6.043,6.043,0,0,0,6.036-6.036v-9.8A6.043,6.043,0,0,0,15.836,0Zm4.1,15.836a4.1,4.1,0,0,1-4.1,4.1h-9.8a4.1,4.1,0,0,1-4.1-4.1v-9.8a4.1,4.1,0,0,1,4.1-4.1h9.8a4.1,4.1,0,0,1,4.1,4.1v9.8Z" fill="#fff"/>
  <path id="Tracciato_94" data-name="Tracciato 94" d="M46.6,40.97a5.636,5.636,0,1,0,5.636,5.636A5.642,5.642,0,0,0,46.6,40.97Zm0,9.331a3.7,3.7,0,1,1,3.7-3.695A3.7,3.7,0,0,1,46.6,50.3Z" transform="translate(-35.668 -35.67)" fill="#fff"/>
  <path id="Tracciato_95" data-name="Tracciato 95" d="M120.344,28.251a1.422,1.422,0,1,0,1.007.417A1.429,1.429,0,0,0,120.344,28.251Z" transform="translate(-103.536 -24.596)" fill="#fff"/>
</svg>
