<svg xmlns="http://www.w3.org/2000/svg" xmlns:xlink="http://www.w3.org/1999/xlink" width="378.183" height="44.808" viewBox="0 0 378.183 44.808">
  <defs>
    <clipPath id="clip-path">
      <rect id="Rettangolo_7" data-name="Rettangolo 7" width="378.183" height="44.808" fill="none"/>
    </clipPath>
  </defs>
  <g id="Raggruppa_4" data-name="Raggruppa 4" transform="translate(0 0)">
    <g id="Raggruppa_3" data-name="Raggruppa 3" transform="translate(0 0)" clip-path="url(#clip-path)">
      <path id="Tracciato_2" data-name="Tracciato 2" d="M20.692,5.449A8.825,8.825,0,0,0,17.078,1.5,12.565,12.565,0,0,0,10.623.044H0v.63H.464A2.024,2.024,0,0,1,.851.729a1.4,1.4,0,0,1,.442.2,1.106,1.106,0,0,1,.342.42,2.139,2.139,0,0,1,.167.84V19.751a1.855,1.855,0,0,1-.177.819,1.2,1.2,0,0,1-.344.442,1.322,1.322,0,0,1-.442.2,1.066,1.066,0,0,1-.376.043H0V21.9H10.623a12.216,12.216,0,0,0,6.255-1.459A9.3,9.3,0,0,0,20.6,16.48a12.454,12.454,0,0,0,1.216-5.526,13.27,13.27,0,0,0-1.128-5.5M18.172,15.673a7.348,7.348,0,0,1-3.139,3.5,12.639,12.639,0,0,1-6.411,1.349H4.543V1.447h4.2a13.318,13.318,0,0,1,6.565,1.3,6.557,6.557,0,0,1,2.974,3.426,13.83,13.83,0,0,1,.8,4.776,12.373,12.373,0,0,1-.906,4.719" transform="translate(0 0.012)" fill="#fff"/>
      <path id="Tracciato_3" data-name="Tracciato 3" d="M43.481,3.205A11.347,11.347,0,0,0,35.17.043a11.387,11.387,0,0,0-8.313,3.162,10.521,10.521,0,0,0-3.205,7.769,10.49,10.49,0,0,0,3.205,7.749,11.4,11.4,0,0,0,8.313,3.161,11.356,11.356,0,0,0,8.311-3.161,10.529,10.529,0,0,0,3.205-7.749,10.56,10.56,0,0,0-3.205-7.769M42.52,17.188a8.309,8.309,0,0,1-6.578,3.282,10.432,10.432,0,0,1-4.719-1.293c-2.167-1.138-3.746-3.414-4.664-6.753a16.833,16.833,0,0,1-.309-2.985A7.084,7.084,0,0,1,27.808,4.6a8.613,8.613,0,0,1,5.24-3.007,9.611,9.611,0,0,1,1.669-.154c4.664,0,7.627,2.641,9.052,8.07a14.594,14.594,0,0,1,.3,2.818,7.393,7.393,0,0,1-1.548,4.864" transform="translate(6.457 0.012)" fill="#fff"/>
      <path id="Tracciato_4" data-name="Tracciato 4" d="M68.409,21a1.431,1.431,0,0,1-.813.251H67.13v.628h6.295V21.25h-.449a1.335,1.335,0,0,1-.812-.266,1.463,1.463,0,0,1-.514-1.245V2.084a1.405,1.405,0,0,1,.535-1.2,1.248,1.248,0,0,1,.723-.234h.535V.027L69,.01,60.294,19.735,52.192.01H49.766l-.239.013L47.714.009V.638h.448a1.5,1.5,0,0,1,.787.227,1.314,1.314,0,0,1,.541,1.1V19.912a1.341,1.341,0,0,1-.544,1.113,1.455,1.455,0,0,1-.785.225h-.448v.628h5.053V21.25h-.448A1.4,1.4,0,0,1,51.492,21a1.422,1.422,0,0,1-.5-1.263V4.037l7.262,17.841h2.694l7.959-17.99V19.77a1.366,1.366,0,0,1-.5,1.23" transform="translate(13.026 0.003)" fill="#fff"/>
      <path id="Tracciato_5" data-name="Tracciato 5" d="M76.062.008,73.716.027V.652h.517a1.417,1.417,0,0,1,.718.211A1.319,1.319,0,0,1,75.51,1.94V19.869a1.364,1.364,0,0,1-.544,1.141,1.465,1.465,0,0,1-.8.241h-.448v.628h6.295V21.25h-.449a1.341,1.341,0,0,1-.812-.266,1.462,1.462,0,0,1-.514-1.246V2.157A1.468,1.468,0,0,1,78.749.9a1.426,1.426,0,0,1,.812-.266h.466V.009L76.062.026Z" transform="translate(20.124 0.002)" fill="#fff"/>
      <path id="Tracciato_6" data-name="Tracciato 6" d="M100.072.714h.466a1.786,1.786,0,0,1,.382.051,1.15,1.15,0,0,1,.785.645,2.035,2.035,0,0,1,.16.815v15.34L87.682.173,87.6.073,84.466.055v.67l.449-.039A1.8,1.8,0,0,1,85.3.736a1.152,1.152,0,0,1,.782.6,1.954,1.954,0,0,1,.162.784V19.881c-.039,1.051-.566,1.29-.96,1.38a1.8,1.8,0,0,1-.368.052h-.449v.626H89.52v-.626H89.07a1.768,1.768,0,0,1-.386-.052,1.362,1.362,0,0,1-.435-.2,1.108,1.108,0,0,1-.355-.432,1.866,1.866,0,0,1-.151-.829V4.432l14.184,17.407.083.1h1.357V2.065c.05-.754.354-1.166.959-1.3a1.748,1.748,0,0,1,.369-.052h.449V.088h-5.07Z" transform="translate(23.059 0.015)" fill="#fff"/>
      <path id="Tracciato_7" data-name="Tracciato 7" d="M112.795,21.25h-.449a1.333,1.333,0,0,1-.812-.266,1.465,1.465,0,0,1-.516-1.245V2.158A1.472,1.472,0,0,1,111.533.9a1.429,1.429,0,0,1,.812-.266h.467V.009l-3.967.017V.008L106.5.027V.652h.517a1.429,1.429,0,0,1,.718.211,1.322,1.322,0,0,1,.559,1.077V19.869a1.37,1.37,0,0,1-.544,1.142,1.474,1.474,0,0,1-.8.239H106.5v.628h6.295Z" transform="translate(29.074 0.002)" fill="#fff"/>
      <path id="Tracciato_8" data-name="Tracciato 8" d="M140.326,10.936a10.511,10.511,0,0,0-3.194-7.749,12.524,12.524,0,0,0-16.635,0,10.521,10.521,0,0,0-3.205,7.749A10.545,10.545,0,0,0,120.5,18.7a10.952,10.952,0,0,0,6.986,3.1v.067a4.518,4.518,0,0,1,1.967.718,4.37,4.37,0,0,1,1.867,2.332,2.671,2.671,0,0,1,.111.607c.078.785.331,1.184.763,1.184a1.591,1.591,0,0,0,.731-.233,1.91,1.91,0,0,0,.961-1.591,2.228,2.228,0,0,0-.255-.962,4.484,4.484,0,0,0-2.41-2.055c-.144-.045-.3-.089-.453-.132a10.917,10.917,0,0,0,6.368-3.04,10.535,10.535,0,0,0,3.194-7.76m-10.744,9.507a10.384,10.384,0,0,1-4.73-1.295c-2.167-1.127-3.748-3.4-4.664-6.741a15.988,15.988,0,0,1-.311-3.008,7.043,7.043,0,0,1,1.559-4.82,8.568,8.568,0,0,1,5.238-3.017,8.876,8.876,0,0,1,1.7-.165c4.653,0,7.615,2.653,9.041,8.08a15.7,15.7,0,0,1,.288,2.829,7.4,7.4,0,0,1-1.536,4.854,8.329,8.329,0,0,1-6.588,3.283" transform="translate(32.02 0.007)" fill="#fff"/>
      <path id="Tracciato_9" data-name="Tracciato 9" d="M157.815.617l.822.057a1.125,1.125,0,0,1,.766.584,1.721,1.721,0,0,1,.188.724l-.036,12.707a4.905,4.905,0,0,1-.545,2.564,6.133,6.133,0,0,1-1.424,1.573,6.849,6.849,0,0,1-3.349,1.554,3.913,3.913,0,0,1-.687.1,9.67,9.67,0,0,1-1.512,0,8.19,8.19,0,0,1-2.95-.7,7.017,7.017,0,0,1-2.535-1.73,5.383,5.383,0,0,1-1.29-2.395,16.918,16.918,0,0,1-.312-3.662l-.053-10.1a1.253,1.253,0,0,1,1.26-1.241h.517V.027L140.381.009V.638h.466a1.5,1.5,0,0,1,.812.266,1.381,1.381,0,0,1,.5,1.245V13.425a8.556,8.556,0,0,0,.97,3.885,7.9,7.9,0,0,0,3.062,3.179,11.365,11.365,0,0,0,5.419,1.389h.057c.1.009.3.017.615.017.629,0,1.2-.015,1.7-.047A8.449,8.449,0,0,0,159,19.581a6.478,6.478,0,0,0,2.07-4.891L161.054,1.9A1.316,1.316,0,0,1,161.632.85a1.426,1.426,0,0,1,.77-.213h.43V.009h-5.018Z" transform="translate(38.323 0.003)" fill="#fff"/>
      <path id="Tracciato_10" data-name="Tracciato 10" d="M177.816,1.4a3.271,3.271,0,0,1,1.27.215,2.565,2.565,0,0,1,.8.516,2.494,2.494,0,0,1,.457.6,2.708,2.708,0,0,1,.2.485,1.37,1.37,0,0,0,.043.219l.005.256h.911l-.61-3.652H163.8V.673h.467a1.7,1.7,0,0,1,.387.053,1.3,1.3,0,0,1,.432.2,1.072,1.072,0,0,1,.346.428,2.131,2.131,0,0,1,.162.838V19.811a1.833,1.833,0,0,1-.165.787,1.132,1.132,0,0,1-.359.421,1.32,1.32,0,0,1-.432.2,1.184,1.184,0,0,1-.37.038H163.8V21.9h17.1l.61-3.652-.911.015v.225l-.005.018a1.115,1.115,0,0,0-.041.183,2.4,2.4,0,0,1-.2.514,2.462,2.462,0,0,1-.458.608,2.494,2.494,0,0,1-.8.505,3.313,3.313,0,0,1-1.273.209h-9.483V11.65h7.182a2.934,2.934,0,0,1,.975.153,1.352,1.352,0,0,1,.5.309.96.96,0,0,1,.214.342,1,1,0,0,1,.056.29v.439h.639V8.745h-.639V9.17a1.094,1.094,0,0,1-.056.306.971.971,0,0,1-.21.344,1.3,1.3,0,0,1-.489.308,2.873,2.873,0,0,1-.951.151h-7.224V1.4Z" transform="translate(44.716 0.013)" fill="#fff"/>
      <path id="Tracciato_11" data-name="Tracciato 11" d="M194.1.044V.672h.466a1.791,1.791,0,0,1,.388.053,1.324,1.324,0,0,1,.432.2,1.058,1.058,0,0,1,.345.428,2.116,2.116,0,0,1,.162.839V19.81a1.846,1.846,0,0,1-.164.788,1.153,1.153,0,0,1-.359.421,1.316,1.316,0,0,1-.433.2,1.2,1.2,0,0,1-.37.037H194.1V21.9h6.312v-.643h-.47a1.411,1.411,0,0,1-.344-.031,1.355,1.355,0,0,1-.419-.181,1.16,1.16,0,0,1-.358-.392,1.6,1.6,0,0,1-.186-.7v-8.3h7.184a2.981,2.981,0,0,1,.969.153,1.4,1.4,0,0,1,.508.309.947.947,0,0,1,.215.342,1.05,1.05,0,0,1,.056.292v.438h.639V8.744h-.639v.425a1.142,1.142,0,0,1-.056.306,1,1,0,0,1-.209.345,1.3,1.3,0,0,1-.491.307,2.862,2.862,0,0,1-.951.151h-7.224V1.4h9.485a3.269,3.269,0,0,1,1.269.215,2.6,2.6,0,0,1,.8.517,2.457,2.457,0,0,1,.457.6,2.59,2.59,0,0,1,.2.485,1.681,1.681,0,0,0,.043.219l.005.256h.914L211.2.044Z" transform="translate(52.989 0.012)" fill="#fff"/>
      <path id="Tracciato_12" data-name="Tracciato 12" d="M232.486,21.245a2.114,2.114,0,0,1-1.27-.531,2.388,2.388,0,0,1-.6-.841L223.488.231l-.066-.188h-4.576v.63h.5a2.06,2.06,0,0,1,.984.331l-7.461,18.824a2.23,2.23,0,0,1-1.338,1.295,2.011,2.011,0,0,1-.6.122l-.542.02v.63h5.13v-.607l-.63-.066a.728.728,0,0,1-.486-.321.624.624,0,0,1-.088-.376,1.821,1.821,0,0,1,.108-.587l1.349-3.393h10.789l1.226,3.349a1.767,1.767,0,0,1,.122.608.674.674,0,0,1-.6.718.922.922,0,0,1-.243.032h-.42V21.9h6.368v-.619ZM216.3,15.175l5.051-12.757c.476,1.262,1.735,4.655,4.7,12.757Z" transform="translate(57.435 0.012)" fill="#fff"/>
      <path id="Tracciato_13" data-name="Tracciato 13" d="M253.816,21.256a2.149,2.149,0,0,1-2.079-1.338l-2.831-7.8a5.672,5.672,0,0,0,3.427-5.536v-.3a6.139,6.139,0,0,0-.807-3.095C250.344,1.072,247.88,0,244.209,0H233.4V.63h.276a2.766,2.766,0,0,1,.563.045,1.165,1.165,0,0,1,.774.619,2.01,2.01,0,0,1,.167.8V19.818a1.3,1.3,0,0,1-1.5,1.438H233.4v.619h6.3v-.619h-.275c-1,0-1.47-.488-1.5-1.516V12.988h6.289a14.1,14.1,0,0,0,2.123-.145l2.574,7.075c-.076,1.338-.629,1.338-.85,1.338h-.275v.619h6.31v-.619Zm-5.9-10.932a8.335,8.335,0,0,1-5.063,1.293h-4.93V1.371h4.93a14.437,14.437,0,0,1,1.767.1c3.351.486,4.974,2.1,4.974,4.94v.3a4.229,4.229,0,0,1-1.678,3.615" transform="translate(63.717 0)" fill="#fff"/>
      <path id="Tracciato_14" data-name="Tracciato 14" d="M276.023,5.449A8.709,8.709,0,0,0,272.408,1.5,12.517,12.517,0,0,0,265.964.044H255.342v.63h.463a1.952,1.952,0,0,1,.377.055,1.3,1.3,0,0,1,.44.2.933.933,0,0,1,.344.42,2.14,2.14,0,0,1,.165.84V19.751a2.025,2.025,0,0,1-.165.819,1.224,1.224,0,0,1-.354.442,1.294,1.294,0,0,1-.43.2,1.077,1.077,0,0,1-.377.043h-.463V21.9h10.622a12.242,12.242,0,0,0,6.255-1.459,9.338,9.338,0,0,0,3.715-3.958,12.436,12.436,0,0,0,1.216-5.526,13.111,13.111,0,0,0-1.127-5.5m-2.51,10.223a7.406,7.406,0,0,1-3.139,3.5,12.664,12.664,0,0,1-6.411,1.349h-4.09V1.447h4.212a13.274,13.274,0,0,1,6.555,1.3,6.506,6.506,0,0,1,2.972,3.426,13.831,13.831,0,0,1,.8,4.776,12.344,12.344,0,0,1-.9,4.719" transform="translate(69.707 0.012)" fill="#fff"/>
      <path id="Tracciato_15" data-name="Tracciato 15" d="M298.826,3.205a12.506,12.506,0,0,0-16.624,0,10.536,10.536,0,0,0-3.217,7.769,10.5,10.5,0,0,0,3.217,7.749,12.509,12.509,0,0,0,16.624,0,10.524,10.524,0,0,0,3.2-7.749,10.556,10.556,0,0,0-3.2-7.769m-.961,13.983a8.33,8.33,0,0,1-6.589,3.282,10.388,10.388,0,0,1-4.708-1.293c-2.178-1.138-3.746-3.414-4.676-6.753a16.748,16.748,0,0,1-.3-2.985A7.13,7.13,0,0,1,283.141,4.6a8.644,8.644,0,0,1,5.24-3.007,9.832,9.832,0,0,1,1.679-.154c4.654,0,7.618,2.641,9.052,8.07a15.478,15.478,0,0,1,.289,2.818,7.451,7.451,0,0,1-1.537,4.864" transform="translate(76.162 0.012)" fill="#fff"/>
      <path id="Tracciato_16" data-name="Tracciato 16" d="M6.737,32.473a10.751,10.751,0,0,0-2.126-.689,5.945,5.945,0,0,1-1.893-.7,1,1,0,0,1-.5-.862,1.082,1.082,0,0,1,.563-.938,3.1,3.1,0,0,1,1.7-.4,2.79,2.79,0,0,1,1.74.49,1.456,1.456,0,0,1,.6,1.225v.276H8.242V30.59a2.5,2.5,0,0,0-.491-1.5A3.162,3.162,0,0,0,6.4,28.056,4.916,4.916,0,0,0,4.484,27.7a4.668,4.668,0,0,0-2.6.673,2.145,2.145,0,0,0,.079,3.769,8.4,8.4,0,0,0,2.378.868,6.531,6.531,0,0,1,2.07.763,1.066,1.066,0,0,1,.476.925,1.1,1.1,0,0,1-.588.964,3.269,3.269,0,0,1-1.753.409,3.511,3.511,0,0,1-1.977-.49,1.393,1.393,0,0,1-.677-1.23v-.278H.483v.278A2.447,2.447,0,0,0,1,35.883,3.27,3.27,0,0,0,2.485,36.9a5.966,5.966,0,0,0,2.062.346,4.841,4.841,0,0,0,2.675-.67A2.174,2.174,0,0,0,8.3,34.685a2.137,2.137,0,0,0-.409-1.3,3.129,3.129,0,0,0-1.158-.911" transform="translate(0.132 7.562)" fill="#fff"/>
      <path id="Tracciato_17" data-name="Tracciato 17" d="M28.851,31.726h-5.24V27.791H22.2V37.1h1.409V32.9h5.24v4.2h1.417V27.791H28.851Z" transform="translate(6.061 7.587)" fill="#fff"/>
      <path id="Tracciato_18" data-name="Tracciato 18" d="M49.083,27.8H47.909L43.832,37.1h1.5l1.037-2.465h4.245l1.05,2.465h1.492Zm-2.211,5.67L48.5,29.673l1.614,3.792Z" transform="translate(11.966 7.588)" fill="#fff"/>
      <path id="Tracciato_19" data-name="Tracciato 19" d="M72.739,28.545a4.356,4.356,0,0,0-2.663-.75H66.338V37.1h1.416V33.53h2.3a4.47,4.47,0,0,0,2.719-.718,2.757,2.757,0,0,0-.033-4.267M71.8,31.906a2.763,2.763,0,0,1-1.724.453H67.754V28.965H70.13a2.666,2.666,0,0,1,1.669.486,1.512,1.512,0,0,1,.552,1.239,1.425,1.425,0,0,1-.552,1.216" transform="translate(18.11 7.588)" fill="#fff"/>
      <rect id="Rettangolo_5" data-name="Rettangolo 5" width="1.408" height="9.309" transform="translate(111.956 35.379)" fill="#fff"/>
      <path id="Tracciato_20" data-name="Tracciato 20" d="M112.038,34.763l-5.423-6.972H105.34V37.1h1.417V30.136l5.415,6.966h1.268V27.791h-1.4Z" transform="translate(28.757 7.587)" fill="#fff"/>
      <path id="Tracciato_21" data-name="Tracciato 21" d="M129.8,29.662a2.672,2.672,0,0,1,2.048-.787,3,3,0,0,1,1.725.448,1.93,1.93,0,0,1,.8,1.29l.043.223h1.405l-.048-.317a3.015,3.015,0,0,0-1.246-2.079,4.485,4.485,0,0,0-2.681-.742,3.935,3.935,0,0,0-4.2,4.21v1.109a4.5,4.5,0,0,0,.552,2.2,3.778,3.778,0,0,0,1.544,1.5,4.731,4.731,0,0,0,2.247.524,7.2,7.2,0,0,0,2.21-.32,3.172,3.172,0,0,0,1.526-.942l.064-.078V32.418H131.65V33.6h2.722v1.866a2.088,2.088,0,0,1-.587.323,5.128,5.128,0,0,1-1.8.283,3.073,3.073,0,0,1-1.552-.384,2.561,2.561,0,0,1-1.018-1.074,3.565,3.565,0,0,1-.363-1.641V31.933a3.187,3.187,0,0,1,.752-2.271" transform="translate(34.845 7.562)" fill="#fff"/>
      <path id="Tracciato_22" data-name="Tracciato 22" d="M172.688,33.166a3.146,3.146,0,0,0,1.3-.852,2.608,2.608,0,0,0-.387-3.79,4.435,4.435,0,0,0-2.7-.731h-3.569V37.1h1.414V33.454h2.521l2.454,3.647h1.337v-.442Zm-1.581-.895h-2.354V28.965H170.9a2.844,2.844,0,0,1,1.745.466,1.408,1.408,0,0,1,.575,1.216,1.433,1.433,0,0,1-.552,1.16,2.448,2.448,0,0,1-1.559.465" transform="translate(45.683 7.588)" fill="#fff"/>
      <path id="Tracciato_23" data-name="Tracciato 23" d="M190.434,32.9h4.741V31.726h-4.741V28.971h5.417v-1.18h-6.825V37.1h6.859V35.923h-5.451Z" transform="translate(51.603 7.587)" fill="#fff"/>
      <path id="Tracciato_24" data-name="Tracciato 24" d="M214.251,27.8h-1.172L209,37.1h1.5l1.049-2.465h4.235l1.05,2.465h1.492Zm-2.2,5.67,1.614-3.792,1.613,3.792Z" transform="translate(57.056 7.588)" fill="#fff"/>
      <path id="Tracciato_25" data-name="Tracciato 25" d="M232.927,27.792h-1.414V37.1h6.421V35.923h-5.007Z" transform="translate(63.202 7.587)" fill="#fff"/>
      <rect id="Rettangolo_6" data-name="Rettangolo 6" width="1.408" height="9.309" transform="translate(320.95 35.379)" fill="#fff"/>
      <path id="Tracciato_26" data-name="Tracciato 26" d="M268.794,28.971h3.468V37.1h1.409V28.971h3.474v-1.18h-8.351Z" transform="translate(73.379 7.587)" fill="#fff"/>
      <path id="Tracciato_27" data-name="Tracciato 27" d="M294.392,32.334l-2.922-4.542h-1.683l3.9,5.821V37.1h1.409V33.613l3.9-5.821h-1.657Z" transform="translate(79.111 7.587)" fill="#fff"/>
    </g>
  </g>
</svg>
