<svg xmlns="http://www.w3.org/2000/svg" xmlns:xlink="http://www.w3.org/1999/xlink" width="393.518" height="392.505" viewBox="0 0 393.518 392.505">
  <defs>
    <clipPath id="clip-path">
      <rect id="Rettangolo_1" data-name="Rettangolo 1" width="393.518" height="392.505" fill="none"/>
    </clipPath>
  </defs>
  <g id="Raggruppa_2" data-name="Raggruppa 2" transform="translate(0 0)">
    <g id="Raggruppa_1" data-name="Raggruppa 1" transform="translate(0 0)" clip-path="url(#clip-path)">
      <path id="Tracciato_1" data-name="Tracciato 1" d="M388.006,149.346c-2.085,189.347-127.038,215.678-153.592,219.106l-.112.034-7.3,1.493-1.45.262-.039-28.532a2.753,2.753,0,0,1,.112.485V206.332l65.809.112A85.975,85.975,0,0,0,304.5,204.69a71.984,71.984,0,0,0,9.166-2.715c.107-.039.146-.077.257-.116.154,0,.3-.073.412-.073.558-.223,1.227-.446,1.823-.673.485-.219.974-.407,1.493-.631,1.454-.558,2.869-1.192,4.246-1.862a18.2,18.2,0,0,0,2.938-1.488c.673-.3,1.3-.6,1.9-.935,1.042-.592,1.973-1.154,2.977-1.784.669-.412,1.377-.9,2.05-1.343a6.157,6.157,0,0,0,.819-.519c.854-.6,1.711-1.192,2.531-1.827,1-.742,2.012-1.488,2.981-2.308l2.235-1.827-2.608.112H296.054c0-.034-4.843-.034-4.843-.034l-49.944.034H225.625V125.215c0-1.008.034-1.973.112-2.942a55.7,55.7,0,0,1,1.711-11.7,47.589,47.589,0,0,1,2.719-8.493c.858-1.973,1.75-3.907,2.8-5.885.592-1.115,1.3-2.269,1.969-3.384.412-.708.862-1.27,1.3-1.939a21.954,21.954,0,0,1,1.377-1.973,16.685,16.685,0,0,1,1.866-2.423,48.757,48.757,0,0,1,4.173-4.688,45.383,45.383,0,0,1,4.688-4.212,19.427,19.427,0,0,1,2.462-1.862,21.979,21.979,0,0,1,1.973-1.377,17.354,17.354,0,0,1,1.939-1.27c1.115-.708,2.23-1.377,3.388-2.007,1.934-1.008,3.869-1.939,5.885-2.758a43.851,43.851,0,0,1,8.488-2.758c.931-.223,1.939-.407,2.865-.592a55.9,55.9,0,0,1,11.774-1.231,41.518,41.518,0,0,1,4.8.223,29.13,29.13,0,0,1,4.727.6c.45.077.974.15,1.454.262a63.778,63.778,0,0,1,11.881,3.461c1.008.373,1.977.785,2.942,1.231,1.827.854,3.573,1.789,5.323,2.792a26.207,26.207,0,0,1,2.612,1.638,45.226,45.226,0,0,1,4.577,3.354c.266.184.45.373.708.558a23.874,23.874,0,0,1,2.012,1.823c.858.673,1.6,1.381,2.389,2.127.892.931,1.819,1.9,2.715,2.938.223.3.408.562.635.819a.98.98,0,0,1,.223.3,22.453,22.453,0,0,1,1.415,1.75c.335.412.708.854,1,1.3.523.558.892,1.192,1.377,1.823a4.239,4.239,0,0,1,.412.669c.6.9,1.081,1.75,1.639,2.608a18.321,18.321,0,0,1,1.454,2.612c.926,1.819,1.789,3.607,2.531,5.469a18.031,18.031,0,0,1,1.077,2.8,61.2,61.2,0,0,1,2.87,11.692,59.74,59.74,0,0,1,.673,8.6,60.925,60.925,0,0,1-13.82,38.843h23.8c.3-.519.558-1.042.815-1.6.523-1.042,1.042-2.085,1.531-3.127.669-1.415,1.3-2.831,1.862-4.246l1.042-2.681c.034-.112.112-.262.15-.373a81.3,81.3,0,0,0-1.415-57.167c-.485-1.154-.969-2.35-1.488-3.5-.485-1.081-.974-2.162-1.531-3.2a70.414,70.414,0,0,0-3.723-6.558c-.073-.112-.111-.223-.189-.335-.854-1.192-1.711-2.385-2.565-3.539-1.158-1.561-2.346-3.127-3.65-4.654-1.493-1.789-3.127-3.577-4.842-5.289a81.25,81.25,0,0,0-68.752-23.054c-1.081.15-2.162.373-3.2.6-1.342.262-2.681.523-4.023.819a8.21,8.21,0,0,0-2.046.523c-.708.184-1.381.369-2.012.558-.708.223-1.415.407-2.085.6-.673.262-1.381.519-2.012.746-1.3.48-2.569.926-3.8,1.45-.854.335-1.711.708-2.535,1.042-.965.407-1.934.9-2.9,1.415a24.878,24.878,0,0,0-2.5,1.27c-.558.33-1.119.592-1.638.892-.892.519-1.75,1.042-2.608,1.561-.819.489-1.6,1.047-2.381,1.527-.039.039-.15.077-.189.116-.854.631-1.677,1.192-2.535,1.784-.48.373-1.038.785-1.561,1.231-.45.3-.931.708-1.381,1.077-.926.785-1.934,1.643-2.831,2.462-1.042.9-2.012,1.789-2.977,2.715l-.669.635a6.759,6.759,0,0,0-.708.781c-.824.824-1.677,1.754-2.462,2.608a6.577,6.577,0,0,0-.631.708c-.669.819-1.415,1.638-2.123,2.5-.785,1-1.6,2.012-2.308,3.054-.116.189-.3.335-.45.562-.669.965-1.3,1.9-1.973,2.865-.854,1.3-1.75,2.681-2.535,4.058a1.429,1.429,0,0,1-.3.45c-.815,1.488-1.638,3.015-2.419,4.581a1.346,1.346,0,0,1-.112.223c-.073.15-.15.3-.262.485-.446.931-.858,1.862-1.265,2.827-.116.223-.223.562-.335.858-.262.635-.558,1.231-.746,1.823a6.845,6.845,0,0,1-.412.935c-.631,1.6-1.188,3.316-1.711,5.061a2.908,2.908,0,0,0-.223.746c-.412,1.3-.785,2.608-1.119,3.95a6.009,6.009,0,0,0-.223,1c-.335,1.677-.669,3.388-.965,5.138-.262,1.643-.485,3.316-.635,4.993-.073.746-.112,1.488-.15,2.273-.112,1.638-.184,3.311-.184,4.988l.039,4.915v5.216c-.039-.039-.077,50.986-.077,50.986h-6l-2.869-.017v0l-8.866-.056V138.73c.039.039.039-9.419.039-9.419l-.039-9.5c0-18.508,3.5-33.37,8.866-45.213v.009l0,0c.262-.635.6-1.231.892-1.827a.192.192,0,0,0,.077-.15,82.55,82.55,0,0,1,38.32-38.547c7.266-3.573,15.158-5.885,22.831-8.493a10.111,10.111,0,0,1,1.265-.335q1.846-.444,3.689-.892a43.245,43.245,0,0,1,5.735-1.115c1.042-.189,2.123-.412,3.2-.523a92.531,92.531,0,0,1,13.593-.969,186.964,186.964,0,0,0-25.362-10.835c-1.9-.673-3.762-1.308-5.662-1.9C251.845,7.9,248.268,6.893,244.656,6c-2.2-.6-4.431-1.119-6.67-1.6C234.041,3.539,230.06,2.8,226,2.2l-4.808-.669c-1.6-.227-3.2-.373-4.842-.562-3.2-.257-6.438-.519-9.676-.708C203.351.077,200.079,0,196.8,0l-.039,0V0c-2.706,0-5.413.039-8.085.189A193.97,193.97,0,0,0,147.038,6.4c-1.343.3-2.646.673-3.912,1.081-1.6.407-3.093.9-4.654,1.381-3.054.931-6.108,1.973-9.127,3.05-1.527.6-2.981,1.158-4.469,1.716-2.942,1.192-5.919,2.458-8.789,3.762-1.45.635-2.9,1.3-4.319,1.973-2.535,1.231-4.954,2.5-7.45,3.8-4.843,2.608-9.569,5.439-14.189,8.381-2.346,1.527-4.654,3.088-6.888,4.692-1.3.965-2.608,1.862-3.839,2.831-2.492,1.9-4.988,3.8-7.407,5.808-1.789,1.488-3.539,3.02-5.293,4.547-1.561,1.377-3.054,2.792-4.581,4.242l-1.561,1.527c-1.008.935-1.973,1.939-3.015,2.942-1.008,1.008-2.089,2.089-3.093,3.17l-.3.3a6.433,6.433,0,0,0-.712.819c-1.3,1.377-2.642,2.754-3.873,4.208a197.882,197.882,0,0,0-13.4,16.835c-1.789,2.5-3.543,5.066-5.216,7.669-1.75,2.719-3.354,5.4-4.915,8.119-.785,1.343-1.566,2.758-2.273,4.135A185.912,185.912,0,0,0,13.224,126c-.708,1.789-1.343,3.612-2.012,5.439-.635,1.784-1.231,3.646-1.823,5.473A193.7,193.7,0,0,0,0,196.793a196.482,196.482,0,0,0,5.512,46.371C7.6,53.817,132.549,27.485,159.1,24.062l.111-.039,7.3-1.493,1.454-.257L168,50.8a3.317,3.317,0,0,1-.112-.485V186.177l-65.809-.107a86.632,86.632,0,0,0-13.074,1.746,72.808,72.808,0,0,0-9.157,2.719c-.116.039-.15.077-.262.112-.15,0-.3.077-.412.077-.558.223-1.227.446-1.823.669-.485.223-.969.412-1.488.635-1.454.558-2.869,1.192-4.246,1.862a18.066,18.066,0,0,0-2.942,1.488c-.669.3-1.3.6-1.9.931-1.042.6-1.973,1.158-2.981,1.789-.669.407-1.377.892-2.046,1.343a5.893,5.893,0,0,0-.819.519c-.858.6-1.716,1.192-2.535,1.827-1,.742-2.007,1.488-2.981,2.308l-2.235,1.823,2.608-.107H97.468c0,.034,4.843.034,4.843.034l49.944-.034h15.638v61.486c0,1.008-.034,1.973-.112,2.942a55.418,55.418,0,0,1-1.711,11.7,47.468,47.468,0,0,1-2.719,8.493c-.858,1.973-1.75,3.907-2.792,5.88-.6,1.119-1.3,2.273-1.973,3.388-.412.708-.858,1.27-1.3,1.939a21.163,21.163,0,0,1-1.381,1.973,16.034,16.034,0,0,1-1.862,2.419,48.842,48.842,0,0,1-4.173,4.7,45.385,45.385,0,0,1-4.688,4.208,19.841,19.841,0,0,1-2.462,1.862,23.519,23.519,0,0,1-1.969,1.377,17.721,17.721,0,0,1-1.939,1.265c-1.119.708-2.235,1.381-3.388,2.016-1.939,1-3.873,1.934-5.885,2.754a43.889,43.889,0,0,1-8.493,2.758c-.931.219-1.934.4-2.869.592a55.533,55.533,0,0,1-11.765,1.227,40.5,40.5,0,0,1-4.8-.219,29.122,29.122,0,0,1-4.731-.6c-.446-.077-.969-.15-1.454-.262a63.564,63.564,0,0,1-11.881-3.466c-1-.373-1.973-.781-2.942-1.227-1.823-.854-3.573-1.789-5.327-2.792a26.566,26.566,0,0,1-2.6-1.638,45.464,45.464,0,0,1-4.581-3.354c-.262-.184-.446-.373-.708-.558a23.224,23.224,0,0,1-2.012-1.823c-.858-.673-1.6-1.381-2.385-2.123-.892-.935-1.823-1.9-2.719-2.942-.223-.3-.407-.562-.631-.819a.86.86,0,0,1-.223-.3,22.265,22.265,0,0,1-1.415-1.75c-.339-.412-.708-.858-1.008-1.3-.519-.562-.892-1.192-1.377-1.823a4.076,4.076,0,0,1-.407-.673c-.6-.892-1.081-1.75-1.643-2.608a17.62,17.62,0,0,1-1.45-2.608c-.931-1.823-1.789-3.607-2.535-5.469a18.031,18.031,0,0,1-1.077-2.8,61.6,61.6,0,0,1-2.869-11.692A60.463,60.463,0,0,1,58.771,228.49H34.97c-.3.519-.558,1.038-.819,1.6-.519,1.042-1.042,2.085-1.527,3.127-.669,1.415-1.3,2.831-1.862,4.246l-1.042,2.681c-.039.112-.112.262-.146.373a81.249,81.249,0,0,0,1.415,57.167c.48,1.158.965,2.35,1.488,3.5.485,1.081.965,2.162,1.527,3.2a72.365,72.365,0,0,0,3.723,6.554c.077.116.112.227.184.339.858,1.192,1.716,2.385,2.574,3.539,1.154,1.561,2.346,3.127,3.65,4.654,1.488,1.789,3.127,3.577,4.843,5.289a81.233,81.233,0,0,0,68.747,23.055c1.081-.15,2.162-.373,3.2-.6,1.338-.262,2.681-.523,4.023-.819a8.21,8.21,0,0,0,2.046-.523c.708-.184,1.381-.369,2.012-.558.708-.223,1.415-.412,2.089-.6.669-.262,1.377-.523,2.007-.746,1.3-.48,2.569-.926,3.8-1.45.858-.339,1.711-.708,2.531-1.047.969-.4,1.939-.892,2.908-1.411a25.357,25.357,0,0,0,2.5-1.27c.558-.335,1.115-.592,1.634-.892.9-.523,1.754-1.042,2.608-1.565.819-.48,1.6-1.042,2.385-1.523.039-.039.15-.077.184-.116.858-.63,1.677-1.192,2.535-1.784.485-.373,1.042-.785,1.566-1.231a16.828,16.828,0,0,0,1.377-1.081c.931-.781,1.939-1.638,2.831-2.458,1.042-.892,2.012-1.784,2.977-2.719l.673-.631a7.647,7.647,0,0,0,.708-.781c.819-.824,1.673-1.754,2.458-2.608a6.138,6.138,0,0,0,.631-.708c.673-.819,1.415-1.643,2.123-2.5.785-1.008,1.6-2.012,2.312-3.054.112-.189.3-.335.446-.562.669-.965,1.3-1.9,1.973-2.865.858-1.3,1.75-2.681,2.531-4.058a1.616,1.616,0,0,1,.3-.45c.819-1.488,1.638-3.015,2.423-4.581a1.363,1.363,0,0,1,.107-.223c.077-.15.15-.3.262-.485.45-.931.858-1.862,1.265-2.827.111-.227.227-.562.339-.858.262-.635.558-1.231.742-1.827a7.029,7.029,0,0,1,.412-.931c.635-1.6,1.188-3.316,1.711-5.061a2.908,2.908,0,0,0,.223-.746c.412-1.3.781-2.608,1.119-3.95a5.575,5.575,0,0,0,.223-1.008c.335-1.673.669-3.384.969-5.138.257-1.638.485-3.311.631-4.988.073-.746.111-1.488.15-2.273.112-1.638.184-3.316.184-4.988l-.034-4.915V257.2c.034.039.073-50.986.073-50.986h6l2.869.017v0l8.866.051v47.49c-.034-.039-.034,9.419-.034,9.419l.034,9.5c0,18.512-3.5,33.374-8.861,45.217l0,0v-.009c-.262.635-.6,1.231-.9,1.827a.182.182,0,0,0-.073.15,82.559,82.559,0,0,1-38.324,38.547c-7.262,3.573-15.158,5.885-22.831,8.488a8.668,8.668,0,0,1-1.265.335q-1.84.45-3.689.9a43.738,43.738,0,0,1-5.73,1.115c-1.047.189-2.127.412-3.208.523a92.445,92.445,0,0,1-13.592.969,187.015,187.015,0,0,0,25.366,10.835c1.9.673,3.762,1.308,5.657,1.9,3.5,1.119,7.077,2.123,10.689,3.015,2.2.6,4.431,1.119,6.665,1.6,3.95.858,7.935,1.6,12,2.2l4.8.669c1.6.223,3.2.373,4.843.558,3.2.262,6.447.523,9.685.708,3.316.189,6.593.266,9.869.266l.039,0v0c2.706,0,5.417-.039,8.085-.189a194.007,194.007,0,0,0,41.64-6.215c1.338-.3,2.642-.673,3.907-1.081,1.6-.412,3.093-.9,4.658-1.381,3.054-.931,6.108-1.969,9.123-3.05,1.527-.6,2.977-1.158,4.469-1.716,2.938-1.192,5.923-2.458,8.789-3.762,1.454-.635,2.9-1.3,4.324-1.977,2.526-1.227,4.95-2.492,7.446-3.792,4.843-2.612,9.569-5.443,14.189-8.385,2.346-1.527,4.654-3.088,6.893-4.692,1.3-.969,2.6-1.862,3.83-2.831,2.5-1.9,5-3.8,7.416-5.808,1.789-1.493,3.539-3.015,5.284-4.547,1.57-1.377,3.054-2.792,4.585-4.242l1.561-1.527c1.008-.931,1.977-1.939,3.02-2.947,1-1,2.085-2.085,3.093-3.161l.3-.3a7.522,7.522,0,0,0,.708-.819c1.3-1.377,2.642-2.754,3.873-4.208a198.785,198.785,0,0,0,13.408-16.835c1.789-2.5,3.539-5.066,5.211-7.673,1.754-2.715,3.354-5.4,4.92-8.119.781-1.338,1.561-2.754,2.269-4.13a185.911,185.911,0,0,0,10.539-22.608c.708-1.789,1.347-3.612,2.016-5.439.63-1.789,1.227-3.65,1.823-5.473a193.828,193.828,0,0,0,9.385-59.886,196.258,196.258,0,0,0-5.512-46.371" transform="translate(0 -0.002)" fill="#fff"/>
    </g>
  </g>
</svg>
