<?xml version="1.0" encoding="utf-8"?>
<!-- Generator: Adobe Illustrator 26.0.2, SVG Export Plug-In . SVG Version: 6.00 Build 0)  -->
<svg version="1.1" id="Livello_1" xmlns="http://www.w3.org/2000/svg" xmlns:xlink="http://www.w3.org/1999/xlink" x="0px" y="0px"
	 viewBox="0 0 306.6 306.7" style="enable-background:new 0 0 306.6 306.7;" xml:space="preserve">
<style type="text/css">
	.st0{fill:#FFFFFF;}
</style>
<g>
	<path class="st0" d="M299.6,155c0.2,9-0.3,18.2-1.4,27.6c-0.2,1.9-0.1,4.1,0.7,5.7c24.9,54.1-13.3,109.2-63.7,117.3
		c-17.7,2.9-34.5-0.1-50.6-7.6c-1.8-0.8-4.1-1.2-6-0.8C99.6,310.3,24.7,257.5,10.6,178.8C7.7,162.4,8,146,10.8,129.6
		c0.4-2.1,0-4.8-1-6.7c-26-48.4,1.9-108.9,55.7-120.7c21.8-4.8,42.3-1.8,61.8,9.1c1.5,0.9,3.8,1.1,5.6,0.8
		c44.8-6.6,90.9,8.8,123.5,40.1C286.5,81.3,298.9,116.4,299.6,155z M154.2,254.4c8.8-1,17.6-1.5,26.3-3c17.5-3,33.2-9.8,45.5-23.2
		c19.5-21.3,18.7-55.2-1.7-73.9c-9-8.3-19.9-13.3-31.5-16.5c-16.5-4.6-33.4-8.2-49.9-12.9c-6.8-2-13.7-4.8-19.7-8.7
		c-8.9-5.8-8.8-15.8-0.7-22.7c2.2-1.8,4.6-3.7,7.3-4.4c6.1-1.8,12.2-3.6,18.5-4.1c17.8-1.2,32.4,4.3,40.9,21.4
		c1.6,3.3,3.8,6.5,6.3,9.2c5.8,6.4,13.3,7,21,5c7.7-1.9,12.4-7.1,14.1-14.9c1.9-8.8-1.1-16.5-5.9-23.6c-6.7-9.7-15.8-16.5-26.7-20.9
		c-20-8.1-40.9-9.7-62.1-7.1c-14.6,1.8-28.5,5.9-41,14.2c-26.2,17.5-29.5,54.1-6.7,74.9c8,7.3,17.3,12.4,27.6,15.3
		c14.7,4.2,29.8,7.3,44.5,11.3c7.9,2.2,15.6,5.1,23.1,8.4c4.9,2.1,8.4,6.2,9.8,11.6c2.3,8.7-1.7,17.7-10.7,23.5
		c-7,4.5-14.8,6.5-23,7.1c-25.7,1.8-38.4-5.9-47.3-25.7c-1.4-3.1-2.9-6.1-4.7-8.9c-5.5-8.7-15.3-11.8-25.9-8.3
		c-8.6,2.9-13.4,10.9-12.6,21c0.2,2.1,0.5,4.2,1.1,6.3c5.8,20,19.6,32.6,38.1,40.5C122.7,251.8,138.3,253.7,154.2,254.4z"/>
</g>
</svg>
