<?xml version="1.0" standalone="no"?>
<!DOCTYPE svg PUBLIC "-//W3C//DTD SVG 20010904//EN"
 "http://www.w3.org/TR/2001/REC-SVG-20010904/DTD/svg10.dtd">
<svg version="1.0" xmlns="http://www.w3.org/2000/svg"
 width="1500.000000pt" height="1500.000000pt" viewBox="0 0 1500.000000 1500.000000"
 preserveAspectRatio="xMidYMid meet">
<metadata>
Created by potrace 1.14, written by Peter Selinger 2001-2017
</metadata>
<g transform="translate(0.000000,1500.000000) scale(0.100000,-0.100000)"
fill="#000000" stroke="none">
<path d="M7179 13176 c-2 -2 -49 -7 -104 -10 -94 -6 -120 -8 -235 -22 -113
-13 -274 -39 -504 -80 -48 -9 -343 -83 -399 -100 -587 -181 -1000 -366 -1460
-655 -950 -598 -1745 -1520 -2187 -2534 -33 -77 -65 -148 -70 -157 -6 -10 -10
-23 -10 -28 0 -6 -9 -30 -19 -53 -85 -188 -234 -712 -285 -997 -2 -14 -7 -36
-10 -50 -3 -14 -8 -41 -11 -60 -2 -19 -6 -44 -9 -55 -2 -11 -7 -45 -10 -76 -4
-31 -8 -66 -11 -77 -2 -12 -7 -52 -10 -89 -4 -37 -9 -76 -10 -85 -26 -139 -27
-987 -1 -1125 2 -10 7 -45 10 -78 4 -33 9 -73 11 -90 2 -16 7 -50 10 -75 3
-25 7 -56 10 -70 2 -13 7 -42 11 -65 12 -82 66 -341 75 -355 5 -9 9 27 10 95
1 61 2 135 4 165 4 101 16 324 20 385 16 202 25 310 30 345 2 14 6 48 9 75 11
99 17 150 21 175 2 14 11 77 20 140 16 121 20 145 35 225 5 28 12 70 15 95 4
24 8 47 10 50 2 3 6 26 10 50 3 25 10 59 15 75 5 17 14 55 19 85 11 52 15 72
26 121 45 208 200 736 244 834 5 11 30 76 56 145 26 69 56 143 65 165 176 397
299 626 498 930 77 117 187 272 201 285 4 3 20 23 36 45 16 22 37 49 46 60
385 466 787 817 1275 1111 139 84 424 231 567 294 359 156 762 275 1142 335
77 12 242 44 311 60 l20 4 -2 -2367 c-1 -1302 -2 -2369 -3 -2372 -1 -3 -448
-5 -993 -5 -546 0 -1020 -3 -1053 -7 -79 -10 -230 -36 -280 -49 -52 -14 -254
-78 -280 -89 -158 -66 -220 -93 -230 -101 -6 -4 -37 -22 -70 -40 -90 -48 -95
-51 -165 -98 -67 -46 -181 -130 -190 -141 -3 -3 -16 -14 -30 -23 -13 -9 -20
-17 -15 -17 6 0 751 -1 1657 -1 1242 -1 1647 -4 1650 -12 8 -23 2 -1872 -6
-1937 -30 -255 -76 -412 -187 -632 -138 -277 -342 -504 -608 -680 -224 -148
-419 -224 -701 -274 -139 -25 -440 -25 -553 1 -12 3 -33 7 -47 9 -14 2 -62 13
-107 25 -372 96 -690 297 -928 586 -88 108 -177 240 -215 320 -72 155 -91 202
-118 291 -28 91 -34 115 -47 182 -2 13 -6 31 -9 40 -20 71 -29 418 -13 537 26
193 105 441 187 585 14 25 34 62 45 83 11 20 46 74 78 118 32 45 59 86 60 91
2 8 -401 13 -644 9 -34 -1 -36 -3 -74 -83 -21 -46 -51 -114 -67 -153 -16 -38
-33 -79 -38 -90 -19 -42 -84 -277 -94 -345 -3 -19 -11 -62 -16 -95 -19 -110
-27 -229 -25 -380 5 -270 34 -447 117 -705 108 -336 271 -611 518 -874 158
-168 272 -261 495 -405 64 -41 259 -139 350 -175 121 -49 308 -105 405 -121
19 -3 42 -8 50 -10 8 -2 35 -7 60 -10 25 -3 52 -8 60 -10 28 -7 214 -17 320
-16 165 1 256 10 410 42 52 10 104 21 115 22 38 7 170 47 220 67 11 5 54 21
95 36 182 67 443 220 610 358 89 74 281 263 340 337 155 193 272 387 362 604
52 125 107 291 124 375 56 289 56 277 57 1351 1 816 3 919 17 923 13 3 475 1
490 -3 8 -2 4 -2145 -4 -2216 -4 -33 -9 -82 -12 -110 -36 -354 -128 -683 -267
-964 -52 -105 -134 -251 -146 -261 -4 -3 -24 -31 -45 -63 -101 -154 -315 -383
-476 -508 -184 -144 -406 -270 -625 -357 -223 -89 -613 -207 -745 -227 -25 -4
-58 -9 -75 -12 -48 -8 -75 -11 -150 -19 -38 -4 -77 -8 -85 -10 -8 -1 -60 -3
-115 -4 l-100 -1 125 -62 c133 -67 158 -78 370 -164 383 -155 937 -304 1290
-348 19 -2 71 -8 115 -14 238 -31 344 -36 695 -36 356 0 447 5 690 36 41 5 98
11 125 14 28 3 57 8 65 10 8 3 33 7 55 10 22 4 51 8 65 11 14 2 41 7 60 10 19
3 37 7 40 9 3 2 24 6 48 10 57 8 305 69 427 105 778 228 1465 597 2085 1119
246 208 552 517 731 741 28 36 55 67 59 70 25 17 307 416 389 550 134 218 293
521 383 730 114 264 245 643 293 850 68 289 99 446 120 605 3 22 7 54 10 70 4
30 10 80 20 165 28 255 28 866 1 1135 -10 90 -34 280 -42 320 -2 11 -6 36 -9
55 -2 19 -11 71 -20 115 -9 44 -18 89 -19 100 -2 11 -9 43 -16 70 -6 28 -14
61 -16 75 -10 51 -14 30 -15 -76 -1 -156 -14 -468 -24 -564 -3 -25 -7 -83 -10
-130 -3 -47 -7 -96 -10 -110 -2 -14 -7 -59 -10 -100 -4 -41 -8 -86 -10 -100
-2 -14 -6 -50 -10 -80 -3 -30 -8 -66 -10 -80 -3 -14 -7 -47 -10 -75 -3 -27
-10 -75 -15 -105 -5 -30 -12 -74 -15 -98 -3 -24 -13 -80 -21 -125 -8 -45 -18
-95 -20 -112 -4 -23 -60 -290 -79 -375 -11 -49 -69 -263 -100 -365 -19 -66
-37 -129 -40 -139 -21 -85 -147 -428 -228 -616 -61 -144 -221 -471 -286 -583
-232 -406 -504 -768 -810 -1076 -195 -196 -262 -256 -513 -455 -264 -209 -772
-497 -1113 -631 -66 -26 -129 -51 -140 -56 -40 -17 -181 -64 -340 -112 -92
-28 -339 -85 -465 -107 -69 -12 -183 -33 -255 -47 -71 -13 -137 -25 -145 -26
-13 -2 -15 267 -15 2365 l0 2368 25 0 c14 1 468 2 1010 3 542 2 1006 6 1031
10 26 3 60 9 75 12 16 3 44 8 63 11 18 3 43 8 55 10 11 3 35 8 51 11 43 7 288
88 365 120 225 94 477 248 617 378 l22 20 -1657 0 -1657 0 1 920 c0 506 3 956
7 1000 16 196 67 398 137 552 11 24 20 44 20 46 0 2 25 50 56 107 120 221 283
412 479 559 219 165 463 279 700 327 90 18 128 24 180 31 73 9 310 9 385 1 69
-8 181 -28 190 -33 4 -2 22 -7 41 -10 66 -11 274 -87 373 -137 138 -68 272
-159 391 -266 106 -94 117 -106 207 -218 177 -221 312 -516 357 -779 5 -33 13
-76 16 -95 16 -96 17 -320 1 -445 -38 -315 -170 -640 -344 -853 -19 -23 -32
-45 -29 -49 9 -8 644 -10 667 -1 21 8 76 118 140 278 52 130 95 280 115 400 3
19 8 42 10 50 26 95 38 461 21 625 -38 367 -177 761 -371 1050 -180 267 -411
498 -675 675 -97 66 -313 180 -410 218 -30 12 -68 27 -85 33 -40 16 -33 14
-171 53 -67 19 -137 37 -155 40 -57 10 -93 17 -109 21 -8 2 -46 7 -85 10 -38
4 -81 8 -95 11 -32 5 -332 5 -385 -1 -98 -10 -144 -16 -166 -21 -13 -3 -35 -7
-49 -10 -14 -3 -32 -7 -40 -9 -8 -3 -33 -7 -55 -11 -60 -9 -235 -61 -300 -89
-16 -7 -41 -16 -55 -20 -59 -17 -314 -149 -415 -216 -140 -92 -253 -186 -385
-319 -116 -116 -133 -136 -204 -230 -121 -162 -221 -330 -293 -495 -63 -142
-141 -398 -158 -515 -4 -25 -11 -67 -16 -93 -18 -98 -21 -263 -23 -1162 l-1
-920 -252 0 c-161 0 -254 3 -257 10 -5 15 1 2176 7 2205 3 14 8 57 11 95 8 89
14 141 22 185 4 19 8 44 9 56 18 141 102 433 176 609 59 143 199 395 271 490
121 158 297 346 408 436 30 24 57 47 60 50 10 12 225 156 275 184 28 15 73 40
100 55 60 33 244 113 323 140 32 10 108 37 170 59 61 22 112 37 112 35 0 -2
12 2 28 10 58 29 345 94 497 112 22 3 51 7 65 10 14 2 86 7 160 11 74 3 137 7
139 9 8 7 -241 124 -434 204 -177 73 -587 210 -703 235 -9 2 -82 19 -162 39
-80 19 -161 38 -180 41 -19 3 -42 8 -50 10 -8 2 -35 7 -60 10 -25 3 -52 8 -60
10 -18 5 -59 12 -120 20 -45 5 -104 13 -150 20 -14 2 -59 7 -100 10 -41 4 -95
9 -120 12 -57 5 -756 14 -761 9z"/>
</g>
</svg>
