<svg xmlns="http://www.w3.org/2000/svg" xmlns:xlink="http://www.w3.org/1999/xlink" width="80.984" height="80.971" viewBox="0 0 80.984 80.971">
  <defs>
    <clipPath id="clip-path">
      <rect id="Rettangolo_45" data-name="Rettangolo 45" width="80.984" height="80.971" fill="#fff"/>
    </clipPath>
  </defs>
  <g id="Raggruppa_14" data-name="Raggruppa 14" transform="translate(-866 -1006)" opacity="0.713">
    <g id="Raggruppa_13" data-name="Raggruppa 13" transform="translate(866 1006)">
      <g id="Raggruppa_12" data-name="Raggruppa 12" clip-path="url(#clip-path)">
        <path id="Tracciato_134" data-name="Tracciato 134" d="M42.859,80.971H38.115a4.249,4.249,0,0,0-.611-.13,37.356,37.356,0,0,1-14.191-3.709C10.9,71.012,3.3,61.147.638,47.535c-.3-1.54-.43-3.114-.638-4.672V38.119a5.389,5.389,0,0,0,.134-.682A37.463,37.463,0,0,1,4.764,21.49C12.222,8.23,23.6,1.011,38.792.075A37.092,37.092,0,0,1,59.406,4.738c13.324,7.421,20.556,18.82,21.5,34.045A37.512,37.512,0,0,1,76.224,59.47,39.887,39.887,0,0,1,47.542,80.332c-1.545.3-3.121.43-4.683.639m-2.352-8.085A32.4,32.4,0,1,0,8.086,40.512,32.556,32.556,0,0,0,40.508,72.886" transform="translate(0 0)" fill="#fff"/>
        <path id="Tracciato_135" data-name="Tracciato 135" d="M154.892,144.444c0-3.635-.006-7.27.007-10.905a7.379,7.379,0,0,1,.152-1.645,2.663,2.663,0,0,1,3.851-2.014,8.629,8.629,0,0,1,1.206.583q9.508,5.479,19.008,10.972a8.959,8.959,0,0,1,1.05.7,2.743,2.743,0,0,1,0,4.613,10.812,10.812,0,0,1-1.253.823q-9.294,5.376-18.6,10.729a8.475,8.475,0,0,1-2.176.88,2.375,2.375,0,0,1-2.914-1.661,7.249,7.249,0,0,1-.316-2.09c-.03-3.661-.014-7.322-.014-10.984" transform="translate(-124.215 -103.952)" fill="#fff"/>
      </g>
    </g>
  </g>
</svg>
