<svg id="twitter" xmlns="http://www.w3.org/2000/svg" width="26.919" height="21.872" viewBox="0 0 26.919 21.872">
  <g id="Raggruppa_5" data-name="Raggruppa 5" transform="translate(0 0)">
    <path id="Tracciato_96" data-name="Tracciato 96" d="M26.919,50.589a11.506,11.506,0,0,1-3.18.871,5.488,5.488,0,0,0,2.428-3.05,11.029,11.029,0,0,1-3.5,1.336,5.518,5.518,0,0,0-9.546,3.774,5.682,5.682,0,0,0,.128,1.258A15.621,15.621,0,0,1,1.874,49.006a5.52,5.52,0,0,0,1.7,7.376,5.45,5.45,0,0,1-2.493-.68v.061A5.544,5.544,0,0,0,5.5,61.185a5.508,5.508,0,0,1-1.447.182,4.879,4.879,0,0,1-1.045-.094,5.571,5.571,0,0,0,5.157,3.844,11.089,11.089,0,0,1-6.842,2.354A10.334,10.334,0,0,1,0,67.395a15.536,15.536,0,0,0,8.466,2.477,15.6,15.6,0,0,0,15.707-15.7c0-.244-.008-.479-.02-.713A11.009,11.009,0,0,0,26.919,50.589Z" transform="translate(0 -48)" fill="#fff"/>
  </g>
</svg>
