<?xml version="1.0" encoding="utf-8"?>
<!-- Generator: Adobe Illustrator 25.4.1, SVG Export Plug-In . SVG Version: 6.00 Build 0)  -->
<svg version="1.1" id="Livello_1" xmlns:serif="http://www.serif.com/"
	 xmlns="http://www.w3.org/2000/svg" xmlns:xlink="http://www.w3.org/1999/xlink" x="0px" y="0px" viewBox="0 0 555.4 558.1"
	 style="enable-background:new 0 0 555.4 558.1;" xml:space="preserve">
<style type="text/css">
	.st0{fill-rule:evenodd;clip-rule:evenodd;fill:#FFFFFF;}
</style>
<path class="st0" d="M474.5,81.1C422.2,28.8,352.8,0,278.8,0C126.4,0,2.4,124,2.3,276.5c0,48.7,12.7,96.3,36.9,138.3L0,558.1
	l146.6-38.5c40.4,22,85.9,33.6,132.1,33.7h0.1c152.4,0,276.5-124,276.5-276.5C555.4,202.8,526.7,133.4,474.5,81.1z M278.8,506.6
	L278.8,506.6c-41.4,0-81.8-11.1-117-32l-8.4-5l-87,22.8l23.2-84.8l-5.5-8.7C61.1,362.2,49,320,49,276.5
	C49.1,149.8,152.1,46.7,279,46.7c61.4,0,119.1,23.9,162.5,67.4s67.3,101.2,67.3,162.6C508.6,403.4,405.5,506.6,278.8,506.6z
	 M404.9,334.4c-6.9-3.5-40.8-20.2-47.2-22.5c-6.4-2.3-10.9-3.5-15.5,3.5c-4.6,6.9-17.8,22.5-21.9,27.1c-4,4.6-8,5.1-15,1.7
	c-6.9-3.5-29.2-10.7-55.6-34.3c-20.5-18.3-34.4-40.9-38.4-47.8s0-10.3,3.1-14.1c7.5-9.3,15-19,17.3-23.7c2.3-4.6,1.1-8.6-0.6-12.1
	c-1.7-3.5-15.5-37.4-21.3-51.3c-5.6-13.4-11.3-11.6-15.5-11.9c-4-0.2-8.6-0.3-13.3-0.3c-4.6,0-12.1,1.7-18.4,8.6
	c-6.4,6.9-24.2,23.7-24.2,57.6s24.8,66.9,28.2,71.5c3.5,4.6,48.7,74.4,118,104.3c16.5,7.2,29.3,11.3,39.4,14.6
	c16.6,5.2,31.6,4.5,43.6,2.7c13.3-2,40.8-16.8,46.6-32.8c5.8-16.1,5.8-29.9,4-32.8C416.4,339.6,411.8,337.9,404.9,334.4z"/>
</svg>
