<svg id="linkedin-letters" xmlns="http://www.w3.org/2000/svg" width="22.885" height="21.872" viewBox="0 0 22.885 21.872">
  <g id="Raggruppa_6" data-name="Raggruppa 6" transform="translate(0 0)">
    <rect id="Rettangolo_22" data-name="Rettangolo 22" width="4.917" height="14.765" transform="translate(0.283 7.107)" fill="#fff"/>
    <path id="Tracciato_97" data-name="Tracciato 97" d="M165.021,141.022a5.291,5.291,0,0,0-4.1-1.691,5.905,5.905,0,0,0-1.706.231,3.871,3.871,0,0,0-1.3.648,5.55,5.55,0,0,0-1.423,1.563v-2.1h-4.9l.015.715q.015.715.015,4.41t-.03,9.64h4.9V146.2a3.6,3.6,0,0,1,.164-1.207,3.164,3.164,0,0,1,.946-1.274,2.412,2.412,0,0,1,1.572-.514,2.12,2.12,0,0,1,1.885.886,4.311,4.311,0,0,1,.6,2.451v7.9h4.9v-8.462A7.094,7.094,0,0,0,165.021,141.022Z" transform="translate(-143.686 -132.567)" fill="#fff"/>
    <path id="Tracciato_98" data-name="Tracciato 98" d="M2.771,9.708a2.8,2.8,0,0,0-2,.723A2.4,2.4,0,0,0,0,12.256a2.441,2.441,0,0,0,.745,1.818,2.689,2.689,0,0,0,1.967.73h.03a2.807,2.807,0,0,0,2.019-.73,2.359,2.359,0,0,0,.752-1.818,2.485,2.485,0,0,0-.76-1.825A2.724,2.724,0,0,0,2.771,9.708Z" transform="translate(0 -9.708)" fill="#fff"/>
  </g>
</svg>
