<?xml version="1.0" encoding="utf-8"?>
<!-- Generator: Adobe Illustrator 25.4.1, SVG Export Plug-In . SVG Version: 6.00 Build 0)  -->
<svg version="1.1" id="Livello_1" xmlns="http://www.w3.org/2000/svg" xmlns:xlink="http://www.w3.org/1999/xlink" x="0px" y="0px"
	 viewBox="0 0 307.3 153.8" style="enable-background:new 0 0 307.3 153.8;" xml:space="preserve">
<style type="text/css">
	.st0{fill:#FFFFFF;}
</style>
<g>
	<path class="st0" d="M0,74.5c2.4-5.6,6.7-7.3,12.7-7.3c94.3,0.1,188.7,0.1,283,0.1c5.9,0,9.3,1.9,11,6.1c2.3,5.9-1.6,12.4-8,13
		c-1.3,0.1-2.6,0.1-3.9,0.1c-94,0-188.1,0-282.1,0.1c-5.9,0-10.3-1.7-12.7-7.3C0,77.7,0,76.1,0,74.5z"/>
	<path class="st0" d="M0,7.3C2.4,1.7,6.7,0,12.7,0c94.3,0.1,188.7,0.1,283,0.1c5.9,0,9.3,1.9,11,6.1c2.3,5.9-1.6,12.4-8,13
		c-1.3,0.1-2.6,0.1-3.9,0.1c-94,0-188.1,0-282.1,0.1c-5.9,0-10.3-1.7-12.7-7.3C0,10.5,0,8.9,0,7.3z"/>
	<path class="st0" d="M201.7,134.5c31.2,0,62.4,0,93.6,0c1.1,0,2.2,0,3.3,0.1c4.9,0.5,8.7,4.6,8.7,9.5c0,5-3.8,9.2-8.9,9.6
		c-0.8,0.1-1.6,0.1-2.4,0.1c-62.9,0-125.8,0-188.7,0c-4.6,0-8.3-1.3-10.4-5.7c-2.8-6,1.2-12.8,7.8-13.5c1.1-0.1,2.2-0.1,3.3-0.1
		C139.3,134.5,170.5,134.5,201.7,134.5z"/>
</g>
</svg>
