<svg id="Raggruppa_11" data-name="Raggruppa 11" xmlns="http://www.w3.org/2000/svg" xmlns:xlink="http://www.w3.org/1999/xlink" width="148.181" height="14.215" viewBox="0 0 148.181 14.215">
  <defs>
    <clipPath id="clip-path">
      <rect id="Rettangolo_26" data-name="Rettangolo 26" width="148.181" height="14.215" fill="none"/>
    </clipPath>
  </defs>
  <g id="Raggruppa_10" data-name="Raggruppa 10" transform="translate(0 0)" clip-path="url(#clip-path)">
    <path id="Tracciato_126" data-name="Tracciato 126" d="M8.1,10.239a3.5,3.5,0,0,1-2.268.634H1.24v3.24A1.24,1.24,0,0,1,0,15.354V5.593a.765.765,0,0,1,.765-.765H5.834c1.972,0,3.325.916,3.325,3A3.12,3.12,0,0,1,8.1,10.239m-.93-3.945a2.576,2.576,0,0,0-1.338-.225H1.24v3.55H5.834c1.254,0,2.085-.451,2.085-1.8a1.727,1.727,0,0,0-.747-1.522" transform="translate(0 -1.406)" fill="#fff"/>
    <path id="Tracciato_127" data-name="Tracciato 127" d="M37.81,10.351A2.932,2.932,0,0,1,36.2,11l2.452,4.355h-.692a1.247,1.247,0,0,1-1.087-.638L34.795,11H30.61v3.114a1.241,1.241,0,0,1-1.24,1.24V5.606a.778.778,0,0,1,.778-.778h4.491c1.705,0,2.184.056,2.987.578a3.076,3.076,0,0,1,1.282,2.522,3.187,3.187,0,0,1-1.1,2.423M35.372,6.068H30.61V9.759h4.537a2.879,2.879,0,0,0,1.808-.327,1.794,1.794,0,0,0,.714-1.441c.026-1.419-1.056-1.923-2.3-1.923" transform="translate(-8.554 -1.406)" fill="#fff"/>
    <path id="Tracciato_128" data-name="Tracciato 128" d="M66.191,14.644l-1.382-2.912H59.736l-1.33,2.9a1.245,1.245,0,0,1-1.131.726h-.583L61.5,5.265a.766.766,0,0,1,.692-.437h.3a.767.767,0,0,1,.695.442l4.725,10.084h-.6a1.242,1.242,0,0,1-1.122-.709M62.329,6.336l-1.973,4.17h3.9Z" transform="translate(-16.512 -1.406)" fill="#fff"/>
    <path id="Tracciato_129" data-name="Tracciato 129" d="M91.587,6.068v8.045a1.241,1.241,0,0,1-1.24,1.24V6.068H87.12a.62.62,0,0,1,0-1.24h7.707a.62.62,0,0,1,0,1.24Z" transform="translate(-25.194 -1.406)" fill="#fff"/>
    <path id="Tracciato_130" data-name="Tracciato 130" d="M118.99,6.068v8.045a1.241,1.241,0,0,1-1.24,1.24V6.068h-3.227a.62.62,0,0,1,0-1.24h7.707a.62.62,0,0,1,0,1.24Z" transform="translate(-33.175 -1.406)" fill="#fff"/>
    <path id="Tracciato_131" data-name="Tracciato 131" d="M143.076,15.348V5.428a.62.62,0,1,1,1.24,0v8.679a1.24,1.24,0,0,1-1.24,1.24" transform="translate(-41.672 -1.4)" fill="#fff"/>
    <path id="Tracciato_132" data-name="Tracciato 132" d="M167.934,15.511c-3.241,0-5.861-2.184-5.861-5.523a5.462,5.462,0,0,1,5.693-5.537,7.033,7.033,0,0,1,4.592,1.644.6.6,0,0,1,.042.893l-.052.051a.6.6,0,0,1-.793.029,6.053,6.053,0,0,0-3.86-1.391,4.312,4.312,0,0,0-4.382,4.284c0,2.663,2.156,4.311,4.692,4.311a5.343,5.343,0,0,0,3.719-1.384.622.622,0,0,1,.87.064.639.639,0,0,1-.069.91,6.442,6.442,0,0,1-4.59,1.65" transform="translate(-47.205 -1.296)" fill="#fff"/>
    <path id="Tracciato_133" data-name="Tracciato 133" d="M198.684,14.215a5.542,5.542,0,0,1-5.651-5.481,5.63,5.63,0,0,1,5.735-5.551,5.518,5.518,0,1,1-.084,11.032m.1-9.778a4.35,4.35,0,0,0-4.494,4.3,4.434,4.434,0,0,0,8.862-.043,4.241,4.241,0,0,0-4.368-4.255m1.31-2.6a2.706,2.706,0,0,1-2.049-.939L197.273,0h.692a1.787,1.787,0,0,1,1.522.85Z" transform="translate(-56.223 0)" fill="#fff"/>
  </g>
</svg>
